<svg width="328" height="145" viewBox="0 0 328 145" fill="none" xmlns="http://www.w3.org/2000/svg" class="wsc-svg-logo-edraw-horizontal-white">
<path d="M101.433 89.8416L106.27 101.886H104.641L103.307 98.4299H98.323L97.0567 101.886H95.5762L100.199 89.8416H101.433ZM102.798 97.1148L100.757 91.8008L98.8153 97.1148H102.798Z" fill="white"/>
<path d="M118.642 89.8262L121.603 99.4689L124.335 89.8435H125.749L122.113 101.888H120.945L117.984 92.558L115.154 101.888H114.001L110.15 89.8435H111.697L114.658 99.4689L117.407 89.8262H118.642Z" fill="white"/>
<path d="M126.249 95.3053C126.627 94.6248 127.129 94.0957 127.755 93.718C128.38 93.3404 129.054 93.1506 129.778 93.1506C130.502 93.1506 131.177 93.3365 131.803 93.7103C132.428 94.0842 132.926 94.6094 133.299 95.29C133.671 95.9705 133.859 96.7431 133.859 97.6096C133.859 98.4761 133.671 99.2467 133.299 99.9215C132.926 100.596 132.426 101.123 131.803 101.501C131.177 101.881 130.504 102.069 129.778 102.069C129.054 102.069 128.376 101.879 127.747 101.501C127.116 101.123 126.614 100.596 126.241 99.9215C125.869 99.2467 125.682 98.4761 125.682 97.6096C125.682 96.7527 125.871 95.9859 126.249 95.3053ZM127.51 99.287C127.739 99.7586 128.052 100.121 128.448 100.374C128.844 100.627 129.288 100.752 129.78 100.752C130.274 100.752 130.718 100.625 131.114 100.374C131.507 100.121 131.818 99.7586 132.044 99.287C132.268 98.8154 132.38 98.2556 132.38 97.6096C132.38 96.9616 132.268 96.4038 132.044 95.9322C131.818 95.4606 131.509 95.0983 131.114 94.8452C130.718 94.5922 130.274 94.4676 129.78 94.4676C129.288 94.4676 128.842 94.5941 128.448 94.8452C128.052 95.0983 127.741 95.4606 127.51 95.9322C127.28 96.4038 127.164 96.9635 127.164 97.6096C127.164 98.2556 127.278 98.8154 127.51 99.287Z" fill="white"/>
<path d="M142.22 94.0554C142.769 94.6593 143.043 95.5143 143.043 96.6223V101.888H141.643V97.0172C141.643 96.2063 141.481 95.5794 141.159 95.1404C140.834 94.7014 140.354 94.4829 139.719 94.4829C139.302 94.4829 138.91 94.5787 138.543 94.7704C138.174 94.9622 137.877 95.2478 137.645 95.6254C137.416 96.005 137.3 96.4728 137.3 97.0325V101.886H135.902V93.3461H137.136C137.159 93.8944 137.192 94.366 137.234 94.7609C137.52 94.2337 137.906 93.833 138.394 93.5589C138.883 93.2847 139.427 93.1467 140.031 93.1467C140.942 93.1506 141.67 93.4515 142.22 94.0554Z" fill="white"/>
<path d="M151.501 89.3662H152.898V101.888H151.665C151.642 101.317 151.609 100.836 151.566 100.439C151.26 100.987 150.85 101.397 150.341 101.666C149.831 101.934 149.291 102.068 148.719 102.068C148.061 102.068 147.443 101.892 146.868 101.541C146.293 101.19 145.829 100.677 145.478 100.002C145.127 99.3271 144.951 98.5296 144.951 97.6075C144.951 96.6969 145.127 95.9052 145.478 95.2285C145.829 94.5537 146.293 94.038 146.868 93.6814C147.443 93.3249 148.061 93.1466 148.719 93.1466C149.267 93.1466 149.789 93.2731 150.283 93.5242C150.775 93.7773 151.182 94.1549 151.501 94.6591V89.3662ZM150.727 99.9942C151.242 99.49 151.501 98.6945 151.501 97.6075C151.501 96.5321 151.242 95.7423 150.727 95.2381C150.211 94.7339 149.598 94.4808 148.883 94.4808C148.136 94.4808 147.54 94.755 147.09 95.3033C146.64 95.8515 146.414 96.6202 146.414 97.6075C146.414 98.6063 146.64 99.3789 147.09 99.9271C147.54 100.475 148.136 100.75 148.883 100.75C149.598 100.751 150.211 100.5 150.727 99.9942Z" fill="white"/>
<path d="M160.92 93.6682C161.474 94.0132 161.898 94.4829 162.196 95.0753C162.491 95.6676 162.64 96.3252 162.64 97.0498C162.64 97.3565 162.616 97.6364 162.574 97.8895H156.42C156.474 98.8672 156.754 99.5937 157.258 100.071C157.764 100.548 158.399 100.786 159.167 100.786C160.12 100.786 160.812 100.403 161.24 99.634L162.309 100.244C162.089 100.824 161.682 101.275 161.084 101.593C160.485 101.911 159.819 102.071 159.086 102.071C158.318 102.071 157.619 101.894 156.988 101.543C156.356 101.193 155.858 100.679 155.492 100.004C155.123 99.3292 154.939 98.5202 154.939 97.577C154.939 96.6664 155.123 95.8766 155.492 95.2076C155.858 94.5385 156.349 94.0286 156.964 93.6778C157.58 93.3269 158.254 93.1506 158.989 93.1506C159.721 93.1506 160.366 93.3231 160.92 93.6682ZM157.333 95.0254C156.877 95.4203 156.59 95.9955 156.47 96.7527H161.126C161.093 96.0185 160.879 95.4472 160.485 95.0408C160.09 94.6363 159.574 94.4311 158.939 94.4311C158.323 94.4331 157.789 94.6305 157.333 95.0254Z" fill="white"/>
<path d="M168.754 93.256C168.98 93.3269 169.163 93.419 169.306 93.5282L168.796 94.6631C168.576 94.5308 168.314 94.4657 168.007 94.4657C167.372 94.4657 166.85 94.7264 166.443 95.2478C166.038 95.7692 165.835 96.5284 165.835 97.5272V101.888H164.438V93.348H165.671C165.694 93.8963 165.727 94.3641 165.769 94.7475C166.252 93.6835 167.003 93.1506 168.024 93.1506C168.285 93.1506 168.528 93.1851 168.754 93.256Z" fill="white"/>
<path d="M175.891 100.819C175.622 101.214 175.246 101.52 174.763 101.739C174.281 101.957 173.727 102.069 173.101 102.069C172.267 102.069 171.549 101.883 170.945 101.509C170.341 101.137 169.947 100.625 169.762 99.979L170.831 99.3694C171.237 100.324 171.993 100.801 173.101 100.801C173.64 100.801 174.061 100.692 174.368 100.472C174.674 100.253 174.829 99.9503 174.829 99.5669C174.829 99.2717 174.738 99.0282 174.557 98.8422C174.375 98.6563 174.151 98.5106 173.883 98.4071C173.615 98.3016 173.238 98.1789 172.756 98.0371C172.175 97.8722 171.704 97.7131 171.341 97.5597C170.978 97.4064 170.671 97.1783 170.42 96.8773C170.167 96.5763 170.042 96.1776 170.042 95.6849C170.042 95.1692 170.181 94.7206 170.461 94.3353C170.74 93.9519 171.119 93.6586 171.596 93.4554C172.072 93.2522 172.595 93.1506 173.167 93.1506C173.912 93.1506 174.555 93.3154 175.091 93.6452C175.63 93.9749 175.991 94.4235 176.178 94.9948L175.109 95.6044C174.933 95.2325 174.673 94.943 174.327 94.7417C173.981 94.5385 173.572 94.4369 173.101 94.4369C172.619 94.4369 172.233 94.5328 171.941 94.7245C171.65 94.9162 171.505 95.1941 171.505 95.5564C171.505 95.8191 171.59 96.0338 171.76 96.1987C171.929 96.3635 172.14 96.4939 172.393 96.5936C172.646 96.6913 173.001 96.8083 173.462 96.9386C174.066 97.1035 174.555 97.2645 174.927 97.4236C175.3 97.5828 175.62 97.8262 175.891 98.1559C176.159 98.4857 176.294 98.9189 176.294 99.4557C176.294 99.9675 176.159 100.424 175.891 100.819Z" fill="white"/>
<path d="M184.326 94.0554C184.886 94.6593 185.166 95.5143 185.166 96.6223V101.888H183.766V97.0172C183.766 96.2063 183.604 95.5794 183.282 95.1405C182.957 94.7015 182.477 94.4829 181.842 94.4829C181.425 94.4829 181.033 94.5788 180.666 94.7705C180.297 94.9622 180 95.2478 179.768 95.6255C179.539 96.005 179.423 96.4728 179.423 97.0326V101.886H178.025V89.3644H179.423V94.6305C179.72 94.1474 180.104 93.7813 180.575 93.5282C181.046 93.2752 181.573 93.1506 182.154 93.1506C183.042 93.1506 183.766 93.4516 184.326 94.0554Z" fill="white"/>
<path d="M193.225 94.0305C193.839 94.6171 194.146 95.4548 194.146 96.5399V101.888H192.912C192.88 101.329 192.856 100.966 192.847 100.801C192.584 101.219 192.229 101.534 191.785 101.748C191.341 101.963 190.833 102.069 190.262 102.069C189.714 102.069 189.2 101.967 188.724 101.764C188.247 101.561 187.867 101.26 187.581 100.859C187.295 100.458 187.152 99.979 187.152 99.4193C187.152 98.5758 187.496 97.9086 188.181 97.4198C188.866 96.931 189.753 96.6875 190.839 96.6875C191.453 96.6875 192.09 96.7699 192.748 96.9348V96.7872C192.748 95.9859 192.586 95.3916 192.264 95.0024C191.94 94.6133 191.449 94.4177 190.791 94.4177C190.264 94.4177 189.826 94.527 189.475 94.7475C189.123 94.966 188.826 95.29 188.587 95.7194L187.517 95.1098C187.78 94.5174 188.21 94.042 188.809 93.6854C189.407 93.3289 190.088 93.1506 190.859 93.1506C191.822 93.1506 192.611 93.4439 193.225 94.0305ZM192.748 98.1023C192.057 97.9259 191.426 97.8396 190.857 97.8396C190.142 97.8396 189.592 97.9777 189.202 98.2499C188.812 98.524 188.617 98.9074 188.617 99.402C188.617 99.864 188.783 100.223 189.112 100.479C189.44 100.736 189.868 100.867 190.395 100.867C191.042 100.867 191.596 100.677 192.057 100.299C192.519 99.9215 192.748 99.3982 192.748 98.7272V98.1023Z" fill="white"/>
<path d="M200.865 93.256C201.091 93.3269 201.274 93.419 201.417 93.5282L200.908 94.6631C200.687 94.5308 200.425 94.4657 200.118 94.4657C199.483 94.4657 198.962 94.7264 198.554 95.2478C198.149 95.7692 197.946 96.5284 197.946 97.5272V101.888H196.549V93.348H197.782C197.805 93.8963 197.838 94.3641 197.881 94.7475C198.363 93.6835 199.114 93.1506 200.135 93.1506C200.398 93.1506 200.641 93.1851 200.865 93.256Z" fill="white"/>
<path d="M207.66 93.6682C208.214 94.0132 208.639 94.4829 208.936 95.0753C209.231 95.6676 209.38 96.3252 209.38 97.0498C209.38 97.3565 209.357 97.6364 209.314 97.8895H203.16C203.214 98.8672 203.494 99.5937 203.998 100.071C204.504 100.548 205.139 100.786 205.907 100.786C206.861 100.786 207.552 100.403 207.98 99.634L209.05 100.244C208.83 100.824 208.422 101.275 207.824 101.593C207.226 101.911 206.56 102.071 205.826 102.071C205.058 102.071 204.359 101.894 203.728 101.543C203.097 101.193 202.599 100.679 202.232 100.004C201.863 99.3292 201.68 98.5202 201.68 97.577C201.68 96.6664 201.863 95.8766 202.232 95.2076C202.599 94.5385 203.089 94.0286 203.705 93.6778C204.32 93.3269 204.994 93.1506 205.73 93.1506C206.463 93.1506 207.108 93.3231 207.66 93.6682ZM204.073 95.0254C203.618 95.4203 203.33 95.9955 203.21 96.7527H207.866C207.834 96.0185 207.619 95.4472 207.226 95.0408C206.83 94.6363 206.314 94.4311 205.679 94.4311C205.064 94.4331 204.529 94.6305 204.073 95.0254Z" fill="white"/>
<path d="M223.515 98.8917L224.7 99.5838C224.358 100.362 223.833 100.972 223.121 101.411C222.409 101.85 221.584 102.068 220.652 102.068C219.633 102.068 218.704 101.806 217.872 101.278C217.039 100.751 216.38 100.017 215.898 99.0739C215.415 98.1307 215.174 97.0552 215.174 95.8494C215.174 94.6436 215.415 93.5681 215.898 92.623C216.38 91.6799 217.039 90.9476 217.872 90.4261C218.706 89.9047 219.633 89.644 220.652 89.644C221.584 89.644 222.407 89.8625 223.121 90.3015C223.835 90.7405 224.36 91.3501 224.7 92.1284L223.515 92.8186C222.901 91.6013 221.936 90.9916 220.619 90.9916C219.851 90.9916 219.172 91.1949 218.579 91.6013C217.986 92.0077 217.529 92.577 217.205 93.3132C216.882 94.0474 216.72 94.8928 216.72 95.8475C216.72 96.8022 216.882 97.6495 217.205 98.3895C217.529 99.1294 217.986 99.7045 218.579 100.109C219.172 100.515 219.851 100.719 220.619 100.719C221.936 100.719 222.901 100.109 223.515 98.8917Z" fill="white"/>
<path d="M226.403 95.3053C226.782 94.6248 227.284 94.0957 227.909 93.718C228.535 93.3404 229.208 93.1506 229.932 93.1506C230.656 93.1506 231.332 93.3365 231.957 93.7103C232.583 94.0842 233.081 94.6094 233.455 95.29C233.828 95.9705 234.015 96.7431 234.015 97.6096C234.015 98.4761 233.828 99.2467 233.455 99.9215C233.082 100.596 232.583 101.123 231.957 101.501C231.332 101.881 230.658 102.069 229.932 102.069C229.208 102.069 228.531 101.879 227.901 101.501C227.27 101.123 226.768 100.596 226.396 99.9215C226.023 99.2467 225.836 98.4761 225.836 97.6096C225.836 96.7527 226.025 95.9859 226.403 95.3053ZM227.662 99.287C227.892 99.7586 228.204 100.121 228.6 100.374C228.996 100.627 229.44 100.752 229.932 100.752C230.426 100.752 230.87 100.625 231.266 100.374C231.66 100.121 231.971 99.7586 232.196 99.287C232.42 98.8154 232.532 98.2556 232.532 97.6096C232.532 96.9616 232.42 96.4038 232.196 95.9322C231.971 95.4606 231.662 95.0983 231.266 94.8452C230.87 94.5922 230.426 94.4676 229.932 94.4676C229.44 94.4676 228.994 94.5941 228.6 94.8452C228.204 95.0983 227.894 95.4606 227.662 95.9322C227.432 96.4038 227.317 96.9635 227.317 97.6096C227.317 98.2556 227.43 98.8154 227.662 99.287Z" fill="white"/>
<path d="M246.946 94.0305C247.449 94.6171 247.702 95.4606 247.702 96.5572V101.888H246.32V97.0172C246.32 96.1948 246.177 95.5661 245.892 95.1328C245.606 94.6996 245.185 94.4829 244.625 94.4829C244.056 94.4829 243.57 94.7015 243.17 95.1405C242.768 95.5795 242.57 96.2102 242.57 97.0326V101.887H241.187V97.0153C241.187 96.2044 241.045 95.5776 240.759 95.1386C240.473 94.6996 240.056 94.481 239.508 94.481C238.937 94.481 238.452 94.7034 238.053 95.1481C237.651 95.5929 237.452 96.2198 237.452 97.0326V101.887H236.055V93.3461H237.288C237.3 93.72 237.327 94.1532 237.371 94.6459C237.657 94.1532 238.016 93.7794 238.448 93.5263C238.881 93.2733 239.356 93.1487 239.871 93.1487C240.442 93.1487 240.944 93.3001 241.377 93.6011C241.809 93.9021 242.126 94.3488 242.323 94.943C242.597 94.3392 242.967 93.8906 243.432 93.5934C243.898 93.2982 244.411 93.1487 244.971 93.1487C245.782 93.1506 246.44 93.4439 246.946 94.0305Z" fill="white"/>
<path d="M256.134 93.6835C256.709 94.0401 257.172 94.5558 257.524 95.2306C257.875 95.9054 258.051 96.699 258.051 97.6096C258.051 98.5317 257.875 99.3292 257.524 100.004C257.172 100.679 256.709 101.191 256.134 101.543C255.559 101.894 254.947 102.071 254.3 102.071C253.752 102.071 253.227 101.942 252.729 101.683C252.229 101.426 251.822 101.045 251.503 100.539V105.705H250.105V93.3461H251.339C251.362 93.8944 251.395 94.3775 251.437 94.7954C251.744 94.2471 252.154 93.835 252.663 93.5608C253.173 93.2867 253.719 93.1487 254.3 93.1487C254.947 93.1506 255.559 93.3289 256.134 93.6835ZM255.912 99.9292C256.362 99.3809 256.588 98.6084 256.588 97.6096C256.588 96.6108 256.362 95.8383 255.912 95.29C255.462 94.7417 254.864 94.4676 254.119 94.4676C253.669 94.4676 253.246 94.5711 252.852 94.7801C252.457 94.989 252.134 95.3283 251.881 95.7999C251.629 96.2715 251.503 96.8754 251.503 97.6096C251.503 98.3438 251.629 98.9477 251.881 99.4193C252.134 99.8909 252.457 100.232 252.852 100.439C253.248 100.648 253.669 100.752 254.119 100.752C254.864 100.752 255.462 100.477 255.912 99.9292Z" fill="white"/>
<path d="M265.571 94.0305C266.185 94.6171 266.492 95.4548 266.492 96.5399V101.888H265.258C265.225 101.329 265.202 100.966 265.193 100.801C264.93 101.219 264.575 101.534 264.131 101.748C263.687 101.963 263.179 102.069 262.608 102.069C262.06 102.069 261.546 101.967 261.069 101.764C260.593 101.561 260.212 101.26 259.927 100.859C259.641 100.458 259.498 99.979 259.498 99.4193C259.498 98.5758 259.842 97.9086 260.527 97.4198C261.212 96.931 262.098 96.6875 263.185 96.6875C263.799 96.6875 264.436 96.7699 265.094 96.9348V96.7872C265.094 95.9859 264.932 95.3916 264.61 95.0024C264.285 94.6133 263.795 94.4177 263.137 94.4177C262.61 94.4177 262.172 94.527 261.82 94.7475C261.469 94.966 261.172 95.29 260.932 95.7194L259.863 95.1098C260.125 94.5174 260.556 94.042 261.154 93.6854C261.753 93.3289 262.434 93.1506 263.204 93.1506C264.168 93.1506 264.957 93.4439 265.571 94.0305ZM265.094 98.1023C264.403 97.9259 263.772 97.8396 263.202 97.8396C262.488 97.8396 261.938 97.9777 261.548 98.2499C261.158 98.524 260.963 98.9074 260.963 99.402C260.963 99.864 261.129 100.223 261.457 100.479C261.786 100.736 262.214 100.867 262.741 100.867C263.388 100.867 263.942 100.677 264.403 100.299C264.864 99.9215 265.094 99.3982 265.094 98.7272V98.1023Z" fill="white"/>
<path d="M275.215 94.0554C275.763 94.6593 276.037 95.5143 276.037 96.6223V101.888H274.637V97.0172C274.637 96.2063 274.475 95.5794 274.153 95.1404C273.829 94.7014 273.348 94.4829 272.713 94.4829C272.296 94.4829 271.904 94.5787 271.537 94.7704C271.168 94.9622 270.871 95.2478 270.64 95.6254C270.41 96.005 270.294 96.4728 270.294 97.0325V101.886H268.896V93.3461H270.13C270.153 93.8944 270.186 94.366 270.228 94.7609C270.514 94.2337 270.9 93.833 271.389 93.5589C271.877 93.2847 272.421 93.1467 273.025 93.1467C273.937 93.1506 274.666 93.4515 275.215 94.0554Z" fill="white"/>
<path d="M283.963 93.3463H285.411L281.413 103.434C281.062 104.323 280.689 104.956 280.294 105.335C279.898 105.713 279.344 105.903 278.632 105.903C277.962 105.903 277.429 105.732 277.035 105.393L277.595 104.258C277.715 104.358 277.871 104.436 278.064 104.496C278.257 104.557 278.446 104.586 278.632 104.586C278.971 104.586 279.259 104.471 279.494 104.241C279.73 104.011 279.985 103.577 280.259 102.941L280.67 101.986L277.116 93.3463H278.728L281.409 100.209L283.963 93.3463Z" fill="white"/>
<path d="M52.9227 51.2193H31.0037C27.9769 51.2193 25.5234 48.8288 25.5234 45.8785C25.5234 42.9281 27.9769 40.5376 31.0037 40.5376H52.9208C71.0776 40.5376 85.7965 54.8847 85.7965 72.5846C85.7965 90.2845 71.0776 104.632 52.9208 104.632H31.0037C27.9769 104.632 25.5234 102.241 25.5234 99.2907C25.5234 96.3404 27.9769 93.9499 31.0037 93.9499H52.9208C65.026 93.9499 74.8379 84.3839 74.8379 72.5846C74.8379 60.7853 65.0279 51.2193 52.9227 51.2193Z" fill="white"/>
<path d="M52.9227 77.9255H31.0037C27.9769 77.9255 25.5234 75.5349 25.5234 72.5846C25.5234 69.6343 27.9769 67.2438 31.0037 67.2438H52.9208C55.9476 67.2438 58.401 69.6343 58.401 72.5846C58.401 75.533 55.9476 77.9255 52.9227 77.9255Z" fill="white"/>
<path d="M143.427 57.9135C141.202 57.4265 139.422 57.2099 138.032 57.2099C133.748 57.2099 131.635 59.1059 131.635 62.9533V69.9965C131.635 73.6274 133.693 75.414 137.864 75.414C139.812 75.414 141.536 75.1974 142.981 74.8178C143.259 74.7086 143.427 74.4919 143.427 74.2216V57.9135ZM125.182 70.2131V62.7904C125.182 55.4213 129.075 51.4665 136.806 51.4665C138.53 51.4665 140.7 51.6831 143.425 52.17V41.9293C143.425 40.6832 143.815 40.2499 145.093 40.2499H148.153C149.433 40.2499 149.877 40.6832 149.877 41.9293V76.4435C149.877 78.1765 149.431 78.719 147.651 79.4245C144.481 80.5632 141.032 81.1574 137.25 81.1574C129.187 81.1594 125.182 77.5285 125.182 70.2131Z" fill="white"/>
<path d="M115.602 62.3036V63.4959H102.754V62.3036C102.754 58.782 105.034 56.7768 109.207 56.7768C113.435 56.7768 115.602 58.7801 115.602 62.3036ZM96.3027 63.1701V69.5634C96.3027 76.6621 100.418 81.1595 109.095 81.1595C114.936 81.1595 118.94 79.4265 121.11 75.9586C121.943 74.7125 121.721 73.846 120.442 73.2498L118.494 72.2204C117.158 71.5168 116.546 71.6242 115.656 72.8702C114.377 74.7662 112.207 75.7419 109.093 75.7419C105.034 75.7419 102.752 73.846 102.752 70.3244V68.3192H119.55C121.218 68.3192 122.053 67.5601 122.053 65.99V62.685C122.053 56.1288 117.66 51.4685 109.205 51.4685C100.808 51.4666 96.3027 55.5844 96.3027 63.1701Z" fill="white"/>
<path d="M167.153 52.193H168.933C170.213 52.193 170.657 52.5726 170.657 53.8723V56.2571C170.657 57.5032 170.211 57.9364 168.933 57.9364H166.931C164.873 57.9364 163.094 58.153 161.648 58.5863C161.258 58.64 161.092 58.8566 161.092 59.2362V79.3918C161.092 80.6379 160.702 81.0711 159.424 81.0711H156.364C155.085 81.0711 154.641 80.6379 154.641 79.3918V56.905C154.641 55.172 155.031 54.5203 156.81 53.8167C159.532 52.8429 162.982 52.3003 167.153 52.193Z" fill="white"/>
<path d="M189.773 74.7639C189.773 75.1435 189.551 75.3601 189.161 75.523C187.825 75.7934 185.991 75.9563 183.598 75.9563C179.536 75.9563 178.368 74.7639 178.368 72.3254C178.368 69.9407 179.704 68.8039 183.708 68.8039C183.769 68.8039 184.088 68.8192 184.665 68.846C185.634 68.8921 187.331 68.9726 189.771 69.0742V74.7639H189.773ZM184.321 51.4662C178.648 51.4662 174.811 53.3622 172.807 57.1004C172.195 58.1835 172.529 58.9963 173.753 59.5389L175.979 60.459C177.258 60.8923 177.536 60.7849 178.37 59.6462C179.538 57.9132 181.486 57.0448 184.211 57.0448C188.217 57.0448 189.775 58.8871 189.775 62.4087V63.925C188.574 63.8637 187.572 63.81 186.771 63.7659C185.456 63.695 184.677 63.6528 184.435 63.6528C175.369 63.6528 171.344 65.9283 171.344 72.3772C171.344 75.3582 172.699 77.5781 174.479 78.9871C176.258 80.4498 179.484 81.1553 184.213 81.1553C188.663 81.1553 192 80.6684 194.226 79.7463C195.784 79.0964 196.228 78.5539 196.228 76.6579V62.6253C196.224 55.2045 192.274 51.4662 184.321 51.4662Z" fill="white"/>
<path d="M235.971 52.6399H234.136C231.966 52.6399 231.298 52.9658 231.02 54.3193L227.96 66.7665C227.515 68.5551 227.183 70.938 227.127 72.4007L227.015 73.4301H226.681C226.681 73.1042 226.291 69.529 225.513 66.7646L221.785 54.4784C221.339 53.0157 220.951 52.7991 218.948 52.7991H217.668C215.666 52.7991 215.276 53.0157 214.83 54.532L211.159 66.7627C210.491 69.3085 209.991 73.1023 209.991 73.4282H209.713C209.713 73.4282 209.213 68.8772 208.767 66.8183L205.597 54.3154C205.319 52.9601 204.708 52.6361 202.538 52.6361H200.368C198.754 52.6361 198.476 53.0157 198.978 54.5876L206.375 79.6068C206.653 80.6362 207.431 81.1232 208.711 81.1232H210.547C211.827 81.1232 212.605 80.6362 212.883 79.6068L216.942 65.7352C217.388 64.2188 217.72 62.2673 217.888 61.0212L218 60.1547H218.278L218.39 61.0212C218.556 62.2673 218.836 64.2188 219.28 65.7352L223.341 79.6068C223.675 80.6362 224.453 81.1232 225.733 81.1232H227.625C228.904 81.1232 229.682 80.6362 229.96 79.6068L237.413 54.5876C237.861 53.0195 237.583 52.6399 235.971 52.6399Z" fill="white"/>
</svg>
