<svg width="245" height="145" viewBox="0 0 245 145" fill="none" xmlns="http://www.w3.org/2000/svg" class="wsc-svg-logo-ufoto-horizontal-white">
<path d="M32.2132 93.4496L37.141 105.719H35.4816L34.124 102.199H29.0454L27.7547 105.719H26.2462L30.9561 93.4496H32.2132ZM33.6044 100.858L31.526 95.4442L29.5482 100.858H33.6044ZM49.7419 93.4329L52.7589 103.255L55.5412 93.4496H56.9827L53.2785 105.719H52.0884L49.0714 96.2152L46.1885 105.719H45.0152L41.0931 93.4496H42.6687L45.6857 103.255L48.4848 93.4329H49.7419ZM56.9198 101.361C56.9198 100.489 57.1098 99.7071 57.4897 99.0143C57.8808 98.3215 58.3948 97.7852 59.0318 97.4053C59.6687 97.0142 60.3559 96.8186 61.0934 96.8186C61.8309 96.8186 62.5181 97.0086 63.155 97.3885C63.7919 97.7684 64.3003 98.3048 64.6803 98.9976C65.0602 99.6904 65.2501 100.478 65.2501 101.361C65.2501 102.244 65.0602 103.031 64.6803 103.724C64.3003 104.406 63.7919 104.942 63.155 105.333C62.5181 105.713 61.8309 105.903 61.0934 105.903C60.3559 105.903 59.6631 105.713 59.015 105.333C58.3781 104.942 57.8696 104.406 57.4897 103.724C57.1098 103.031 56.9198 102.244 56.9198 101.361ZM58.4284 101.361C58.4284 102.02 58.5457 102.59 58.7803 103.071C59.015 103.551 59.3335 103.92 59.7357 104.177C60.138 104.434 60.5905 104.562 61.0934 104.562C61.5962 104.562 62.0488 104.434 62.451 104.177C62.8533 103.92 63.1662 103.551 63.3897 103.071C63.6243 102.59 63.7416 102.02 63.7416 101.361C63.7416 100.702 63.6243 100.132 63.3897 99.6513C63.1662 99.1708 62.8533 98.802 62.451 98.545C62.0488 98.288 61.5962 98.1595 61.0934 98.1595C60.5905 98.1595 60.138 98.288 59.7357 98.545C59.3335 98.802 59.015 99.1708 58.7803 99.6513C58.5457 100.132 58.4284 100.702 58.4284 101.361ZM71.5326 96.8186C72.46 96.8186 73.2031 97.1259 73.7618 97.7405C74.3205 98.3551 74.5999 99.2266 74.5999 100.355V105.719H73.1752V100.758C73.1752 99.9306 73.0076 99.2937 72.6723 98.8467C72.3483 98.3998 71.8622 98.1763 71.2141 98.1763C70.7895 98.1763 70.3872 98.2768 70.0073 98.478C69.6386 98.6679 69.3369 98.9585 69.1022 99.3496C68.8676 99.7295 68.7502 100.204 68.7502 100.774V105.719H67.3255V97.0198H68.5826C68.605 97.5785 68.6385 98.059 68.6832 98.4612C68.9737 97.9249 69.3648 97.517 69.8565 97.2377C70.3593 96.9583 70.918 96.8186 71.5326 96.8186ZM83.2164 92.9636H84.6411V105.719H83.384C83.3617 105.138 83.3282 104.646 83.2835 104.244C82.9706 104.803 82.5516 105.222 82.0264 105.501C81.5124 105.769 80.9648 105.903 80.3838 105.903C79.7133 105.903 79.082 105.724 78.4898 105.367C77.9087 105.009 77.4394 104.49 77.0818 103.808C76.7243 103.115 76.5455 102.3 76.5455 101.361C76.5455 100.433 76.7243 99.6289 77.0818 98.9473C77.4394 98.2545 77.9087 97.7293 78.4898 97.3717C79.082 97.003 79.7133 96.8186 80.3838 96.8186C80.9425 96.8186 81.4733 96.9471 81.9761 97.2041C82.4789 97.4611 82.8924 97.8466 83.2164 98.3607V92.9636ZM80.5514 104.562C81.2777 104.562 81.9035 104.305 82.4287 103.791C82.9538 103.277 83.2164 102.467 83.2164 101.361C83.2164 100.266 82.9538 99.4613 82.4287 98.9473C81.9035 98.4333 81.2777 98.1763 80.5514 98.1763C79.7916 98.1763 79.1826 98.4556 78.7244 99.0143C78.2663 99.573 78.0372 100.355 78.0372 101.361C78.0372 102.378 78.2663 103.166 78.7244 103.724C79.1826 104.283 79.7916 104.562 80.5514 104.562ZM90.8498 96.8186C91.5985 96.8186 92.2522 96.9974 92.8109 97.355C93.3808 97.7014 93.8166 98.1763 94.1183 98.7797C94.42 99.3831 94.5708 100.054 94.5708 100.791C94.5708 101.104 94.5485 101.389 94.5038 101.646H88.2351C88.291 102.64 88.5759 103.383 89.0899 103.875C89.6039 104.356 90.252 104.596 91.0342 104.596C92.0064 104.596 92.7103 104.205 93.1461 103.423L94.2356 104.043C94.0121 104.635 93.5931 105.093 92.9785 105.417C92.3751 105.741 91.6991 105.903 90.9504 105.903C90.1682 105.903 89.4531 105.724 88.805 105.367C88.168 105.009 87.6596 104.49 87.2797 103.808C86.911 103.115 86.7266 102.288 86.7266 101.327C86.7266 100.4 86.911 99.5954 87.2797 98.9138C87.6596 98.2322 88.1625 97.7126 88.7882 97.355C89.414 96.9974 90.1012 96.8186 90.8498 96.8186ZM90.7996 98.126C90.1738 98.126 89.6263 98.3271 89.157 98.7294C88.6988 99.1317 88.4083 99.7183 88.2854 100.489H93.0288C92.9953 99.7407 92.7774 99.1596 92.3751 98.7462C91.9728 98.3327 91.4476 98.126 90.7996 98.126ZM100.05 96.8186C100.318 96.8186 100.564 96.8577 100.787 96.936C101.022 97.003 101.212 97.0924 101.357 97.2041L100.837 98.3607C100.614 98.2266 100.346 98.1595 100.033 98.1595C99.3848 98.1595 98.854 98.4277 98.4406 98.9641C98.0271 99.4892 97.8204 100.26 97.8204 101.277V105.719H96.3957V97.0198H97.6528C97.6751 97.5785 97.7086 98.0534 97.7533 98.4445C98.245 97.3606 99.0104 96.8186 100.05 96.8186ZM108.482 103.238C108.482 103.763 108.342 104.227 108.063 104.629C107.795 105.032 107.415 105.344 106.923 105.568C106.432 105.791 105.867 105.903 105.23 105.903C104.381 105.903 103.649 105.713 103.035 105.333C102.42 104.953 102.018 104.434 101.828 103.775L102.917 103.154C103.331 104.126 104.102 104.613 105.23 104.613C105.778 104.613 106.208 104.501 106.521 104.277C106.834 104.054 106.99 103.747 106.99 103.355C106.99 103.054 106.895 102.808 106.705 102.618C106.527 102.428 106.298 102.283 106.018 102.182C105.75 102.07 105.37 101.942 104.878 101.797C104.286 101.629 103.806 101.467 103.437 101.311C103.068 101.154 102.755 100.925 102.498 100.623C102.241 100.311 102.113 99.9027 102.113 99.3998C102.113 98.8747 102.252 98.4165 102.532 98.0254C102.822 97.6343 103.208 97.3382 103.688 97.1371C104.18 96.9248 104.716 96.8186 105.297 96.8186C106.057 96.8186 106.711 96.9862 107.258 97.3215C107.806 97.6567 108.175 98.1148 108.365 98.6959L107.275 99.316C107.096 98.9361 106.828 98.6456 106.471 98.4445C106.124 98.2322 105.711 98.126 105.23 98.126C104.739 98.126 104.342 98.2266 104.04 98.4277C103.75 98.6177 103.605 98.897 103.605 99.2658C103.605 99.5339 103.688 99.7518 103.856 99.9194C104.035 100.087 104.253 100.221 104.51 100.322C104.767 100.422 105.13 100.54 105.599 100.674C106.214 100.841 106.711 101.009 107.091 101.177C107.471 101.333 107.795 101.579 108.063 101.914C108.342 102.249 108.482 102.691 108.482 103.238ZM114.45 96.8186C115.355 96.8186 116.093 97.1259 116.663 97.7405C117.233 98.3551 117.518 99.2266 117.518 100.355V105.719H116.093V100.758C116.093 99.9306 115.925 99.2937 115.59 98.8467C115.266 98.3998 114.78 98.1763 114.132 98.1763C113.707 98.1763 113.305 98.2768 112.925 98.478C112.556 98.6679 112.255 98.9585 112.02 99.3496C111.785 99.7295 111.668 100.204 111.668 100.774V105.719H110.243V92.9636H111.668V98.3271C111.97 97.8355 112.361 97.4611 112.841 97.2041C113.322 96.9471 113.858 96.8186 114.45 96.8186ZM123.318 96.8186C124.302 96.8186 125.106 97.1203 125.732 97.7237C126.358 98.316 126.671 99.1652 126.671 100.271V105.719H125.413C125.38 105.149 125.358 104.78 125.346 104.613C125.078 105.037 124.715 105.361 124.257 105.585C123.81 105.797 123.296 105.903 122.715 105.903C122.156 105.903 121.631 105.803 121.139 105.601C120.659 105.389 120.273 105.082 119.983 104.68C119.692 104.266 119.547 103.775 119.547 103.205C119.547 102.344 119.893 101.668 120.586 101.177C121.29 100.674 122.195 100.422 123.302 100.422C123.927 100.422 124.575 100.506 125.246 100.674V100.523C125.246 99.7071 125.078 99.1037 124.743 98.7126C124.419 98.3104 123.922 98.1092 123.251 98.1092C122.715 98.1092 122.268 98.221 121.91 98.4445C121.553 98.6679 121.251 98.9976 121.005 99.4334L119.916 98.8132C120.184 98.2098 120.62 97.7293 121.223 97.3717C121.838 97.003 122.536 96.8186 123.318 96.8186ZM125.246 101.864C124.542 101.685 123.899 101.596 123.318 101.596C122.592 101.596 122.028 101.735 121.625 102.015C121.234 102.294 121.039 102.685 121.039 103.188C121.039 103.657 121.206 104.026 121.542 104.294C121.877 104.551 122.313 104.68 122.849 104.68C123.508 104.68 124.073 104.49 124.542 104.11C125.011 103.719 125.246 103.182 125.246 102.501V101.864ZM132.77 96.8186C133.038 96.8186 133.284 96.8577 133.507 96.936C133.742 97.003 133.932 97.0924 134.077 97.2041L133.558 98.3607C133.334 98.2266 133.066 98.1595 132.753 98.1595C132.105 98.1595 131.574 98.4277 131.161 98.9641C130.747 99.4892 130.541 100.26 130.541 101.277V105.719H129.116V97.0198H130.373C130.395 97.5785 130.429 98.0534 130.474 98.4445C130.965 97.3606 131.731 96.8186 132.77 96.8186ZM138.465 96.8186C139.214 96.8186 139.868 96.9974 140.426 97.355C140.996 97.7014 141.432 98.1763 141.734 98.7797C142.035 99.3831 142.186 100.054 142.186 100.791C142.186 101.104 142.164 101.389 142.119 101.646H135.851C135.906 102.64 136.191 103.383 136.705 103.875C137.219 104.356 137.868 104.596 138.65 104.596C139.622 104.596 140.326 104.205 140.762 103.423L141.851 104.043C141.628 104.635 141.209 105.093 140.594 105.417C139.991 105.741 139.315 105.903 138.566 105.903C137.784 105.903 137.069 105.724 136.42 105.367C135.784 105.009 135.275 104.49 134.895 103.808C134.526 103.115 134.342 102.288 134.342 101.327C134.342 100.4 134.526 99.5954 134.895 98.9138C135.275 98.2322 135.778 97.7126 136.404 97.355C137.029 96.9974 137.717 96.8186 138.465 96.8186ZM138.415 98.126C137.789 98.126 137.242 98.3271 136.772 98.7294C136.314 99.1317 136.024 99.7183 135.901 100.489H140.644C140.611 99.7407 140.393 99.1596 139.991 98.7462C139.588 98.3327 139.063 98.126 138.415 98.126ZM153.624 104.529C154.965 104.529 155.948 103.909 156.574 102.668L157.781 103.372C157.435 104.166 156.898 104.786 156.172 105.233C155.446 105.68 154.608 105.903 153.658 105.903C152.619 105.903 151.674 105.635 150.825 105.099C149.976 104.562 149.305 103.814 148.814 102.853C148.322 101.892 148.076 100.797 148.076 99.5675C148.076 98.3383 148.322 97.2432 148.814 96.2823C149.305 95.3213 149.976 94.5782 150.825 94.053C151.674 93.5167 152.619 93.2485 153.658 93.2485C154.608 93.2485 155.446 93.472 156.172 93.9189C156.898 94.3659 157.435 94.9861 157.781 95.7794L156.574 96.4834C155.948 95.2431 154.965 94.6229 153.624 94.6229C152.842 94.6229 152.149 94.8296 151.546 95.2431C150.942 95.6565 150.473 96.2376 150.138 96.9862C149.814 97.7349 149.652 98.5953 149.652 99.5675C149.652 100.54 149.814 101.406 150.138 102.165C150.473 102.914 150.942 103.495 151.546 103.909C152.149 104.322 152.842 104.529 153.624 104.529ZM158.944 101.361C158.944 100.489 159.134 99.7071 159.514 99.0143C159.905 98.3215 160.419 97.7852 161.056 97.4053C161.693 97.0142 162.38 96.8186 163.117 96.8186C163.855 96.8186 164.542 97.0086 165.179 97.3885C165.816 97.7684 166.324 98.3048 166.704 98.9976C167.084 99.6904 167.274 100.478 167.274 101.361C167.274 102.244 167.084 103.031 166.704 103.724C166.324 104.406 165.816 104.942 165.179 105.333C164.542 105.713 163.855 105.903 163.117 105.903C162.38 105.903 161.687 105.713 161.039 105.333C160.402 104.942 159.893 104.406 159.514 103.724C159.134 103.031 158.944 102.244 158.944 101.361ZM160.452 101.361C160.452 102.02 160.57 102.59 160.804 103.071C161.039 103.551 161.357 103.92 161.76 104.177C162.162 104.434 162.614 104.562 163.117 104.562C163.62 104.562 164.073 104.434 164.475 104.177C164.877 103.92 165.19 103.551 165.414 103.071C165.648 102.59 165.765 102.02 165.765 101.361C165.765 100.702 165.648 100.132 165.414 99.6513C165.19 99.1708 164.877 98.802 164.475 98.545C164.073 98.288 163.62 98.1595 163.117 98.1595C162.614 98.1595 162.162 98.288 161.76 98.545C161.357 98.802 161.039 99.1708 160.804 99.6513C160.57 100.132 160.452 100.702 160.452 101.361ZM178.434 96.8186C179.261 96.8186 179.931 97.1203 180.445 97.7237C180.959 98.316 181.216 99.1708 181.216 100.288V105.719H179.808V100.758C179.808 99.9194 179.663 99.2825 179.373 98.8467C179.082 98.3998 178.652 98.1763 178.082 98.1763C177.501 98.1763 177.004 98.3998 176.59 98.8467C176.188 99.2937 175.987 99.9362 175.987 100.774V105.719H174.579V100.758C174.579 99.9306 174.434 99.2937 174.143 98.8467C173.853 98.3998 173.428 98.1763 172.869 98.1763C172.288 98.1763 171.791 98.4054 171.377 98.8635C170.975 99.3105 170.774 99.9474 170.774 100.774V105.719H169.349V97.0198H170.606C170.618 97.3997 170.646 97.8411 170.69 98.3439C170.981 97.8411 171.344 97.4611 171.78 97.2041C172.227 96.9471 172.713 96.8186 173.238 96.8186C173.819 96.8186 174.327 96.9751 174.763 97.2879C175.21 97.5896 175.534 98.0422 175.735 98.6456C176.015 98.031 176.389 97.5729 176.858 97.2712C177.339 96.9695 177.864 96.8186 178.434 96.8186ZM187.929 96.8186C188.589 96.8186 189.209 97.003 189.79 97.3717C190.382 97.7293 190.857 98.2545 191.215 98.9473C191.572 99.6289 191.751 100.433 191.751 101.361C191.751 102.3 191.572 103.115 191.215 103.808C190.857 104.49 190.382 105.009 189.79 105.367C189.209 105.724 188.589 105.903 187.929 105.903C187.371 105.903 186.834 105.775 186.32 105.518C185.817 105.249 185.404 104.858 185.08 104.344V109.607H183.655V97.0198H184.912C184.935 97.5785 184.968 98.0701 185.013 98.4947C185.326 97.936 185.739 97.517 186.253 97.2377C186.778 96.9583 187.337 96.8186 187.929 96.8186ZM187.745 104.562C188.505 104.562 189.114 104.283 189.572 103.724C190.03 103.166 190.259 102.378 190.259 101.361C190.259 100.344 190.03 99.5563 189.572 98.9976C189.114 98.4389 188.505 98.1595 187.745 98.1595C187.287 98.1595 186.857 98.2657 186.454 98.478C186.052 98.6903 185.723 99.0367 185.466 99.5172C185.208 99.9977 185.08 100.612 185.08 101.361C185.08 102.11 185.208 102.724 185.466 103.205C185.723 103.685 186.052 104.032 186.454 104.244C186.857 104.456 187.287 104.562 187.745 104.562ZM197.009 96.8186C197.992 96.8186 198.796 97.1203 199.422 97.7237C200.048 98.316 200.361 99.1652 200.361 100.271V105.719H199.104C199.07 105.149 199.048 104.78 199.037 104.613C198.769 105.037 198.405 105.361 197.947 105.585C197.5 105.797 196.986 105.903 196.405 105.903C195.846 105.903 195.321 105.803 194.83 105.601C194.349 105.389 193.964 105.082 193.673 104.68C193.383 104.266 193.237 103.775 193.237 103.205C193.237 102.344 193.584 101.668 194.277 101.177C194.98 100.674 195.886 100.422 196.992 100.422C197.618 100.422 198.266 100.506 198.936 100.674V100.523C198.936 99.7071 198.769 99.1037 198.433 98.7126C198.109 98.3104 197.612 98.1092 196.942 98.1092C196.405 98.1092 195.958 98.221 195.601 98.4445C195.243 98.6679 194.941 98.9976 194.696 99.4334L193.606 98.8132C193.874 98.2098 194.31 97.7293 194.913 97.3717C195.528 97.003 196.226 96.8186 197.009 96.8186ZM198.936 101.864C198.232 101.685 197.59 101.596 197.009 101.596C196.282 101.596 195.718 101.735 195.316 102.015C194.925 102.294 194.729 102.685 194.729 103.188C194.729 103.657 194.897 104.026 195.232 104.294C195.567 104.551 196.003 104.68 196.539 104.68C197.199 104.68 197.763 104.49 198.232 104.11C198.701 103.719 198.936 103.182 198.936 102.501V101.864ZM207.013 96.8186C207.941 96.8186 208.684 97.1259 209.243 97.7405C209.801 98.3551 210.081 99.2266 210.081 100.355V105.719H208.656V100.758C208.656 99.9306 208.488 99.2937 208.153 98.8467C207.829 98.3998 207.343 98.1763 206.695 98.1763C206.27 98.1763 205.868 98.2768 205.488 98.478C205.119 98.6679 204.818 98.9585 204.583 99.3496C204.348 99.7295 204.231 100.204 204.231 100.774V105.719H202.806V97.0198H204.063C204.086 97.5785 204.119 98.059 204.164 98.4612C204.454 97.9249 204.846 97.517 205.337 97.2377C205.84 96.9583 206.399 96.8186 207.013 96.8186ZM218.164 97.0198H219.639L215.566 107.294C215.209 108.199 214.829 108.842 214.427 109.222C214.024 109.613 213.46 109.809 212.734 109.809C212.052 109.809 211.51 109.635 211.108 109.289L211.678 108.132C211.801 108.233 211.957 108.311 212.147 108.367C212.348 108.434 212.544 108.468 212.734 108.468C213.08 108.468 213.371 108.35 213.605 108.116C213.851 107.881 214.114 107.44 214.393 106.792L214.812 105.819L211.192 97.0198H212.834L215.566 104.009L218.164 97.0198Z" fill="white"/>
<path d="M81.2507 37.6947H83.6221V31.0889H81.5895C74.8143 31.0889 69.3941 36.509 69.3941 43.2842V44.8087H64.9902V51.2451H66.5147C68.0391 51.2451 69.2247 52.4308 69.2247 53.9552V80.5478H75.8306V51.4145H83.4527V44.978H75.8306V43.2842C75.8306 40.066 78.3713 37.6947 81.2507 37.6947Z" fill="white"/>
<path d="M136.807 74.2808C132.911 74.2808 129.862 71.0626 129.862 67.3362V51.4145H134.944V44.978H132.742C131.217 44.978 130.032 43.7924 130.032 42.2679V40.9129H123.426V67.5056C123.426 74.9583 129.523 81.056 136.976 81.056H137.823V74.2808H136.807Z" fill="white"/>
<path d="M53.4711 44.8087V51.2451V60.7304V74.2808H40.0901C35.5169 74.2808 31.9599 70.5544 31.9599 66.1505V60.7304V51.2451V44.8087H25.5234V66.1505C25.5234 74.2808 32.1293 80.8866 40.2595 80.8866H60.077V44.8087H53.4711Z" fill="white"/>
<path d="M100.895 44.978C91.2407 44.978 83.4492 53.1083 83.4492 62.9323C83.4492 72.7564 91.2407 80.8866 100.895 80.8866C110.55 80.8866 118.342 72.7564 118.342 62.9323C118.342 52.9389 110.55 44.978 100.895 44.978ZM100.895 74.2808C94.7977 74.2808 90.055 69.1994 90.055 62.9323C90.055 56.6653 94.9671 51.5838 100.895 51.5838C106.993 51.5838 111.736 56.6653 111.736 62.9323C111.736 69.1994 106.993 74.2808 100.895 74.2808Z" fill="white"/>
<path d="M155.097 44.978C145.442 44.978 137.65 53.1083 137.65 62.9323C137.65 72.7564 145.442 80.8866 155.097 80.8866C164.751 80.8866 172.543 72.7564 172.543 62.9323C172.373 52.9389 164.582 44.978 155.097 44.978ZM155.097 74.2808C148.999 74.2808 144.256 69.1994 144.256 62.9323C144.256 56.6653 149.168 51.5838 155.097 51.5838C161.194 51.5838 165.937 56.6653 165.937 62.9323C165.937 69.1994 161.025 74.2808 155.097 74.2808Z" fill="white"/>
</svg>
